<svg xmlns="http://www.w3.org/2000/svg" xml:space="preserve" id="Layer_1" x="0" y="0" version="1.1" viewBox="0 0 595 453"><style>.st1{fill:#00538b}</style><path fill="#00b189" d="M76.3 206.52c.52-.72.99-1.45 1.43-2.2 7.07-12.02 3.98-27.67-7.54-36.01-6.78-4.91-15.05-6.24-22.59-4.39-3.12.77-6.1 2.1-8.81 3.93a27.184 27.184 0 0 0-6.81 6.57c-8.86 12.24-6.13 29.35 6.11 38.21 9.35 6.77 21.54 6.75 30.72.91 2.84-1.79 5.4-4.13 7.49-7.02z"/><path d="M542.72 181.17c-15.28-10.65-28.11-13.62-43.26-19.23-13.09-4.85-12.61-12.72-8.38-16.86 7.35-7.18 21.27-4.32 27.12-1.41 5.85 2.91 9.9 7.5 10.82 8.66 2.32 2.96 5.87 2.36 7.71.23 1.68-1.95 21.57-23.76 23.78-26.19 2.21-2.42 1.83-5.4-.23-7.45-2.06-2.06-10.2-9.83-25.72-15.86-15.52-6.03-28.63-6.31-40.13-4.69-11.5 1.62-34.51 6.08-47.58 29.69s-3.35 51.64 7.92 61.27c13.32 11.38 23.15 13.95 37.96 18.6s23.87 11.4 18.72 21.54c-4.75 9.34-21.42 7.37-31.19 1.94-5.52-3.07-10.2-6.65-13.46-10.82-1.96-2.51-5.43-2.65-7.69-.25-2.26 2.4-22.39 23.75-24.53 25.95-1.77 1.82-2.25 4.97.13 7.36 3.41 3.42 10.54 11.81 27.5 18.61 13.79 5.53 29.04 7.27 46.04 5.52 20.35-2.1 40.74-16.56 47.21-31.96 12.07-28.72 2.53-53.99-12.74-64.65zM156.21 126.38l3.11-8.02c-88.84-25.4-142.31-4.59-120.53 49.49 2.71-1.84 5.69-3.17 8.81-3.93-22.23-46.86 25.34-67.03 108.61-37.54zM359.63 99.53h-58.4c-1.76 0-2.64.96-2.64 2.87v170.64c0 1.76.88 2.64 2.64 2.64h39.9c1.76 0 2.64-.88 2.64-2.64v-60.08h14.9c9.71 0 65.62-.47 65.62-57.21s-54.03-56.22-64.66-56.22zm-3.83 74.73h-12.03v-35.32h12.5c8.45 0 24.27 0 24.27 17.07 0 17.08-16.94 18.25-24.74 18.25z" class="st1"/><path d="M351.66 251.32v9.98c12.45 11.96 23.01 24.06 31.42 35.42 45.41 61.31 20.49 82.92-73.07 51.93-50.18-16.62-105.84-45.86-153.69-78.85l9.48-27.59h57.45l11.78 31.49c.31 1.27 1.11 1.92 2.41 1.92h42.55c1.92 0 2.88-.96 2.88-2.88 0-.33-.16-.8-.47-1.45l-65.63-169.95c-.47-1.27-1.29-1.92-2.41-1.92h-37.25c-1.29 0-2.17.65-2.66 1.92l-54.97 141.03c-15.68-12.65-29.82-25.47-41.75-38.05-.44.75-.91 1.48-1.43 2.2a27.13 27.13 0 0 1-7.49 7.03c12.61 14.59 27.85 29.28 44.93 43.54 7.51 6.28 15.38 12.46 23.54 18.52 51.16 38 113.59 70.86 170.48 87.13 98.93 28.29 125.96 2.8 82.08-65.67-9.61-14.97-22.63-30.44-38.18-45.75zm-156.77-94.69 15.86 46.63h-31.96l16.1-46.63z" class="st1"/></svg>